<svg xmlns="http://www.w3.org/2000/svg" width="1000" height="1600"><path d="M675 1587C369 1468 245 1179 239 1002 233 825 333 665 505 644 676 623 960 670 980 982c19 311-125 524-304 605" fill="#a00"/><path d="m932 1173c-196 90-316 118-572 86 30 94 224 271 313 279 108-42 235-164 259-365" fill="#fff"/><path d="M474 721C396 506 246 399 24 323L28 250C112 257 311 357 404 452 326 282 240 187 126 93L186 34C326 158 396 271 482 415 455 252 438 207 369 68l76-46c134 242 129 459 132 684-42-6-68-2-102 15" fill="#590"/></svg>
